<?xml version="1.0" encoding="UTF-8"?>
<svg width="275px" height="267px" viewBox="0 0 275 267" version="1.1" xmlns="http://www.w3.org/2000/svg" xmlns:xlink="http://www.w3.org/1999/xlink">
    <!-- Generator: Sketch 61.2 (89653) - https://sketch.com -->
    <title>bubble</title>
    <desc>Created with Sketch.</desc>
    <g id="home" stroke="none" stroke-width="1" fill="none" fill-rule="evenodd">
        <g id="web_home" transform="translate(-316.000000, -413.000000)">
            <g id="hero_section">
                <g id="bubble" transform="translate(446.758497, 535.872437) rotate(-5.000000) translate(-446.758497, -535.872437) translate(284.758497, 380.372437)">
                    <path d="M99.0824456,281.053106 C102.396154,281.053106 105.082446,278.293253 105.082446,274.888802 C105.082446,271.484351 101.511594,269.053106 98.1978854,269.053106 C94.8841769,269.053106 93.0824456,271.484351 93.0824456,274.888802 C93.0824456,278.293253 95.7687371,281.053106 99.0824456,281.053106 Z" id="Oval" fill="#FAF9F5" opacity="0.203078497"></path>
                    <path d="M95.5978263,293.988286 C97.8069653,293.988286 99.5978263,292.148384 99.5978263,289.87875 C99.5978263,287.609116 97.8069653,286.022383 95.5978263,286.022383 C93.3886873,286.022383 91.5978263,287.609116 91.5978263,289.87875 C91.5978263,292.148384 93.3886873,293.988286 95.5978263,293.988286 Z" id="Oval-Copy-7" fill="#FAF9F5" opacity="0.203078497"></path>
                    <path d="M163.91364,52.4292871 C187.74654,28.9926755 232.619044,4.70539959 264.506411,39.5548485 C296.393777,74.4042974 294.379721,194.059035 257.244326,248.310104 C220.10893,302.561174 163.191718,290.261905 128.450678,280.916992 C93.7096381,271.572079 35.4385263,240.443598 36.9029019,194.063551 C38.3672775,147.683505 93.6230036,157.088049 110.85926,128.800825 C128.095516,100.513601 140.08074,75.8658987 163.91364,52.4292871 Z" id="Path-2-Copy" fill="#FAF9F5" opacity="0.20421782" transform="translate(161.875823, 155.610990) scale(1, -1) rotate(75.000000) translate(-161.875823, -155.610990) "></path>
                    <path d="M160.601367,55.1050408 C181.402509,33.9134565 220.56683,11.9526942 248.397838,43.4638635 C276.228846,74.9750327 274.470997,183.167868 242.059555,232.222148 C209.648114,281.276429 159.97128,270.155325 129.64961,261.705575 C99.327941,253.255825 48.4694351,225.109186 49.7475291,183.171952 C51.025623,141.234718 99.2523271,149.738387 114.295978,124.160838 C129.339628,98.5832877 139.800224,76.2966251 160.601367,55.1050408 Z" id="Path-2" fill="#FAF9F5" transform="translate(158.822778, 148.402817) scale(1, -1) rotate(80.000000) translate(-158.822778, -148.402817) "></path>
                    <rect id="Rectangle" fill="#B3B3B3" x="71.3943533" y="75.6964352" width="3" height="6"></rect>
                    <rect id="Rectangle-Copy-29" fill="#B3B3B3" x="71.3943533" y="112.696435" width="3" height="6"></rect>
                    <rect id="Rectangle-Copy-33" fill="#B3B3B3" x="71.3943533" y="148.696435" width="3" height="6"></rect>
                    <rect id="Rectangle-Copy-37" fill="#B3B3B3" x="71.3943533" y="176.696435" width="3" height="6"></rect>
                    <rect id="Rectangle-Copy-27" fill="#B3B3B3" x="71.3943533" y="93.6964352" width="3" height="6"></rect>
                    <rect id="Rectangle-Copy-30" fill="#B3B3B3" x="71.3943533" y="130.696435" width="3" height="6"></rect>
                    <rect id="Rectangle-Copy-34" fill="#B3B3B3" x="71.3943533" y="166.696435" width="3" height="6"></rect>
                    <rect id="Rectangle-Copy-38" fill="#B3B3B3" x="71.3943533" y="194.696435" width="3" height="6"></rect>
                    <rect id="Rectangle-Copy-26" fill="#B3B3B3" x="71.3943533" y="84.6964352" width="3" height="6"></rect>
                    <rect id="Rectangle-Copy-31" fill="#B3B3B3" x="71.3943533" y="121.696435" width="3" height="6"></rect>
                    <rect id="Rectangle-Copy-35" fill="#B3B3B3" x="71.3943533" y="158.696435" width="3" height="6"></rect>
                    <rect id="Rectangle-Copy-39" fill="#B3B3B3" x="71.3943533" y="186.696435" width="3" height="6"></rect>
                    <rect id="Rectangle-Copy-28" fill="#B3B3B3" x="71.3943533" y="103.696435" width="3" height="6"></rect>
                    <rect id="Rectangle-Copy-32" fill="#B3B3B3" x="71.3943533" y="139.696435" width="3" height="6"></rect>
                    <rect id="Rectangle-Copy-36" fill="#B3B3B3" x="71.3943533" y="176.696435" width="3" height="6"></rect>
                    <rect id="Rectangle-Copy-40" fill="#B3B3B3" x="71.3943533" y="204.696435" width="3" height="6"></rect>
                    <rect id="Rectangle-Copy-41" fill="#B3B3B3" x="71.3943533" y="212.696435" width="3" height="6"></rect>
                    <rect id="Rectangle" fill="#B3B3B3" x="80.3943533" y="77.6964352" width="95" height="3" rx="1.5"></rect>
                    <rect id="Rectangle-Copy-23" fill="#A70D03" x="80.3943533" y="205.696435" width="43" height="3" rx="1.5"></rect>
                    <rect id="Rectangle-Copy" fill="#B3B3B3" x="80.3943533" y="86.6964352" width="61" height="3" rx="1.5"></rect>
                    <rect id="Rectangle-Copy-24" fill="#B3B3B3" x="79.3943533" y="214.696435" width="22" height="3" rx="1.5"></rect>
                    <rect id="Rectangle-Copy-3" fill="#A70D03" x="95.3943533" y="95.6964352" width="61" height="3" rx="1.5"></rect>
                    <rect id="Rectangle-Copy-4" fill="#A70D03" x="79.3943533" y="132.696435" width="60" height="3" rx="1.5"></rect>
                    <rect id="Rectangle-Copy-7" fill="#A70D03" x="111.394353" y="104.696435" width="55" height="3" rx="1.5"></rect>
                    <rect id="Rectangle-Copy-9" fill="#A70D03" x="111.394353" y="113.696435" width="40" height="3" rx="1.5"></rect>
                    <rect id="Rectangle-Copy-11" fill="#B3B3B3" x="95.3943533" y="122.696435" width="141" height="3" rx="1.5"></rect>
                    <rect id="Rectangle-Copy-15" fill="#A70D03" x="95.3943533" y="150.696435" width="110" height="3" rx="1.5"></rect>
                    <rect id="Rectangle-Copy-16" fill="#A70D03" x="111.394353" y="159.696435" width="43" height="3" rx="1.5"></rect>
                    <rect id="Rectangle-Copy-19" fill="#F25D1D" x="125.394353" y="168.696435" width="43" height="3" rx="1.5"></rect>
                    <rect id="Rectangle-Copy-25" fill="#B3B3B3" x="175.394353" y="168.696435" width="24" height="3" rx="1.5"></rect>
                    <rect id="Rectangle-Copy-17" fill="#47A703" x="159.394353" y="159.696435" width="43" height="3" rx="1.5"></rect>
                    <rect id="Rectangle-Copy-21" fill="#B3B3B3" x="95.3943533" y="186.696435" width="43" height="3" rx="1.5"></rect>
                    <rect id="Rectangle-Copy-18" fill="#B3B3B3" x="209.394353" y="159.696435" width="15" height="3" rx="1.5"></rect>
                    <rect id="Rectangle-Copy-20" fill="#A70D03" x="111.394353" y="177.696435" width="43" height="3" rx="1.5"></rect>
                    <rect id="Rectangle-Copy-10" fill="#47A703" x="156.394353" y="113.696435" width="76" height="3" rx="1.5"></rect>
                    <rect id="Rectangle-Copy-13" fill="#3403A7" x="239.394353" y="113.696435" width="24" height="3" rx="1.5"></rect>
                    <rect id="Rectangle-Copy-8" fill="#A79903" x="172.394353" y="104.696435" width="37" height="3" rx="1.5"></rect>
                    <rect id="Rectangle-Copy-5" fill="#A70D03" x="80.3943533" y="141.696435" width="77" height="3" rx="1.5"></rect>
                    <rect id="Rectangle-Copy-22" fill="#47A703" x="80.3943533" y="196.696435" width="61" height="3" rx="1.5"></rect>
                    <rect id="Rectangle-Copy-6" fill="#F25D1D" x="163.394353" y="141.696435" width="20" height="3" rx="1.5"></rect>
                    <rect id="Rectangle-Copy-14" fill="#F25D1D" x="188.394353" y="141.696435" width="20" height="3" rx="1.5"></rect>
                    <rect id="Rectangle-Copy-2" fill="#B3B3B3" x="147.394353" y="86.6964352" width="98" height="3" rx="1.5"></rect>
                    <rect id="Rectangle-Copy-12" fill="#B3B3B3" x="251.394353" y="86.6964352" width="15" height="3" rx="1.5"></rect>
                </g>
            </g>
        </g>
    </g>
</svg>