<?xml version="1.0" encoding="UTF-8"?>
<svg width="24px" height="22px" viewBox="0 0 24 22" version="1.1" xmlns="http://www.w3.org/2000/svg" xmlns:xlink="http://www.w3.org/1999/xlink">
    <!-- Generator: Sketch 61.2 (89653) - https://sketch.com -->
    <title>icons/hazy</title>
    <desc>Created with Sketch.</desc>
    <g id="icons/hazy" stroke="none" stroke-width="1" fill="none" fill-rule="evenodd">
        <g id="hazy_icon" fill="#000000" fill-rule="nonzero">
            <path d="M13.890917,0.0141484716 L14.7970742,1.28695415 L14.7970742,1.28695415 L15.6993013,2.56270742 C16.1001747,3.12393013 16.4916157,3.69222707 16.8985153,4.24899563 C17.9651528,3.83266376 19.048821,3.45484716 20.1542358,3.15432314 C20.7104803,3.01179039 21.2748472,2.86978166 21.8520524,2.85877729 C22.1677729,2.8441048 22.4575546,2.98978166 22.7352838,3.12078603 C23.1712664,3.34008734 23.5928384,3.58768559 24,3.85598253 C21.8913537,4.88305677 19.768559,5.88209607 17.6305677,6.84707424 C17.9868996,8.68008734 18.3251528,10.5217467 18.4752838,12.3854148 C18.5213974,13.0320524 18.5536245,13.6839301 18.4836681,14.3300437 C18.4391266,14.7665502 18.2944978,15.1847162 18.1367686,15.5916157 C17.8351965,16.351441 17.4510917,17.0777293 17.0020087,17.760524 C16.5531878,18.4391266 16.0338865,19.0750218 15.4262882,19.6181659 C14.8278603,20.1513537 14.1361572,20.5941485 13.3687336,20.8386026 C12.5245415,21.1129258 11.5983406,21.1262882 10.7465502,20.8758079 C9.87956332,20.6248035 9.10375546,20.1214847 8.44768559,19.5091703 C7.75362445,18.8609607 7.17615721,18.0961572 6.69117904,17.2820961 C6.40585153,16.800524 6.15065502,16.3006114 5.93475983,15.7841921 C5.77598253,15.3985153 5.62820961,15.0049782 5.54829694,14.5944105 C5.45213974,14.040786 5.46104803,13.4756332 5.48489083,12.9162445 C5.51200873,12.3571834 5.5650655,11.7998908 5.63179176,11.2443668 L5.72647259,10.5196701 C5.72931587,10.4913246 5.73065502,10.4628821 5.72908297,10.4342358 C4.53851528,10.6590393 3.34323144,10.859738 2.14873362,11.0625328 C1.44078603,11.1801747 0.732838428,11.2993886 0.023580786,11.4086463 C0.133362445,11.1269869 0.25860262,10.8513537 0.386724891,10.5775546 C0.540524017,10.260786 0.697729258,9.94270742 0.903930131,9.65606987 C1.07606987,9.41004367 1.34882096,9.26541485 1.60637555,9.1260262 C2.26847162,8.78882096 2.97484716,8.550131 3.68043668,8.32218341 C4.47091703,8.07117904 5.27266376,7.8571179 6.07650655,7.65406114 C6.08122271,5.9250655 6.09275109,4.19606987 6.10454148,2.46707424 L9.95790393,1.77851528 C10.0420087,1.76174672 10.1303057,1.75598253 10.2089083,1.71851528 L13.890917,0.0141484716 Z M17.1343231,7.0710917 C16.350131,7.41825328 15.5654148,7.76358079 14.7733624,8.09240175 C13.8023581,8.49117904 12.8282096,8.89388646 11.8108297,9.16087336 C11.3075109,9.29737991 10.798952,9.41371179 10.291179,9.53213974 L11.3578166,10.380524 L11.3578166,10.380524 C11.1927511,10.5846288 11.0206114,10.7832314 10.8492576,10.9820961 C10.3409607,10.5437555 9.82218341,10.110393 9.24576419,9.76323144 C8.93475983,9.81117904 8.62716157,9.88873362 8.31694323,9.94558952 C7.63965066,10.0815721 6.96026201,10.2081223 6.28139738,10.3375546 C6.1831441,11.0213974 6.09720524,11.7073362 6.04270742,12.3964192 C5.99790393,13.0066376 5.96593886,13.6215721 6.02593886,14.2320524 C6.06471616,14.6512664 6.20803493,15.0508297 6.36131004,15.4396507 C6.58401747,15.9964192 6.85572052,16.5330131 7.16279476,17.0475983 C7.64724891,17.8532751 8.2260262,18.6096943 8.92925764,19.2372052 C9.51563319,19.7549345 10.198952,20.190655 10.9627074,20.3866376 C11.0172052,20.0082969 11.0819214,19.6315284 11.1579039,19.2568559 C11.2464629,18.8297817 11.3415721,18.4016594 11.4961572,17.9929258 C11.5545852,17.8519651 11.6119651,17.7015721 11.7256769,17.5949345 C11.8535371,17.5095197 12.0225328,17.5110917 12.1668996,17.5464629 C12.3041921,17.58 12.3696943,17.7183406 12.4283843,17.8333624 C12.5863755,18.1771179 12.6754585,18.5473362 12.7619214,18.9141485 C12.8724891,19.4014847 12.9573799,19.8943231 13.0317904,20.3884716 C13.6993886,20.2139738 14.3080349,19.8579039 14.8414847,19.4258515 C15.419214,18.9560699 15.9149345,18.3919651 16.3467249,17.7869869 C16.8123144,17.1324891 17.2074236,16.4276856 17.5278603,15.691179 C17.6861135,15.3178166 17.8346725,14.9373799 17.9213974,14.5401747 C18.0157205,14.0310917 18.0070742,13.5096943 17.9874236,12.9943231 C17.9504803,12.1873362 17.8572052,11.3842795 17.7466376,10.5843668 C17.58,9.40716157 17.3732751,8.23572052 17.1343231,7.0710917 Z M17.2946725,13.7604367 C17.1089083,14.2826201 16.8948472,14.7951092 16.6603493,15.2976419 C16.4531004,15.7302183 16.2353712,16.1627948 15.9419214,16.5445415 C15.7970306,16.7339738 15.6133624,16.9103057 15.3746725,16.9674236 C14.911179,17.0882096 14.4227948,17.0567686 13.9540611,16.9862882 C13.6999127,16.9414847 13.4420961,16.8862009 13.2120524,16.7651528 C12.8848035,16.5830568 12.6075983,16.3184279 12.2633188,16.1662009 C12.059214,16.0967686 11.820262,16.1043668 11.6305677,16.2128384 C11.3449782,16.3648035 11.098952,16.5783406 10.8209607,16.7428821 C10.6181659,16.86131 10.3870742,16.9176419 10.1591266,16.9648035 C9.7650655,17.038952 9.36026201,17.069083 8.96043668,17.0308297 C8.70366812,17.0027948 8.42855895,16.9454148 8.24017467,16.7546725 C7.96008734,16.4798253 7.76593886,16.1329258 7.57912664,15.7915284 C7.23956332,15.1406987 6.95082969,14.4631441 6.70375546,13.7719651 C7.28751092,14.3130131 7.86576419,14.8676856 8.52628821,15.3162445 C8.69213974,15.4241921 8.86532751,15.5313537 9.06183406,15.5724891 C9.31152838,15.6267249 9.56908297,15.6369432 9.82401747,15.6248908 C10.0302183,15.6107424 10.2505677,15.5819214 10.4158952,15.4462009 C10.7470742,15.1844541 10.9862882,14.8283843 11.3059389,14.5540611 C11.5152838,14.3481223 11.8255022,14.3321397 12.1021834,14.3434061 C12.2827074,14.3523144 12.4734498,14.3808734 12.6180786,14.4987773 C12.9508297,14.7584279 13.1903057,15.1150218 13.5083843,15.390393 C13.5966812,15.4661135 13.6944105,15.5352838 13.8078603,15.5675109 C14.0368559,15.6327511 14.2779039,15.6343231 14.5139738,15.6256769 C14.7503057,15.6102183 14.9955459,15.5855895 15.2075109,15.4708297 C15.4912664,15.3204367 15.7459389,15.1220961 15.9966812,14.9229694 C16.4483843,14.5572052 16.8767686,14.1639301 17.2946725,13.7604367 Z M9.8339738,10.8117904 C10.0527511,10.9032314 10.2539738,11.0331878 10.4344978,11.1864629 C10.2550218,11.3609607 10.019214,11.459738 9.78707424,11.5427948 C9.42,11.6662009 9.03458515,11.7437555 8.64655022,11.7474236 C8.27790393,11.7416594 7.89406114,11.6546725 7.59772926,11.4248908 C7.53458515,11.3730131 7.4730131,11.3161572 7.43292576,11.2438428 C7.69860262,10.9710917 8.06829694,10.8319651 8.43117904,10.7434061 C8.89152838,10.6354585 9.39196507,10.6241921 9.8339738,10.8117904 Z M16.1635808,10.9574672 C16.3113537,11.0310917 16.4478603,11.1275109 16.5628821,11.2464629 C16.4360699,11.4324891 16.2327511,11.549607 16.0262882,11.6276856 C15.6715284,11.760262 15.2827074,11.7712664 14.9117031,11.7133624 C14.6266376,11.670655 14.3452402,11.5999127 14.0766812,11.4948472 C13.890131,11.4199127 13.7046288,11.3289956 13.559476,11.1869869 C13.8972052,10.8935371 14.3245415,10.6931004 14.7749345,10.6703057 C15.2515284,10.6464629 15.7351965,10.7473362 16.1635808,10.9574672 Z M15.479476,8.12358079 C16.1027948,8.78331878 16.7295197,9.43991266 17.3496943,10.1025328 C16.8623581,9.90078603 16.3682096,9.70925764 15.8551965,9.58349345 C15.6180786,9.5310917 15.359738,9.47213974 15.1268122,9.57275109 C14.7199127,9.73938865 14.3646288,10.0063755 14.0140611,10.2670742 C13.711441,10.4921397 13.4295197,10.7444541 13.1360699,10.980524 L12.6340611,10.3820961 L12.6340611,10.3820961 L15.479476,8.12358079 L15.479476,8.12358079 Z" id="Shape"></path>
        </g>
    </g>
</svg>