<?xml version="1.0" encoding="UTF-8"?>
<svg width="40px" height="41px" viewBox="0 0 40 41" version="1.1" xmlns="http://www.w3.org/2000/svg" xmlns:xlink="http://www.w3.org/1999/xlink">
    <!-- Generator: Sketch 61.2 (89653) - https://sketch.com -->
    <title>icons/instagram</title>
    <desc>Created with Sketch.</desc>
    <g id="icons/instagram" stroke="none" stroke-width="1" fill="none" fill-rule="evenodd">
        <g id="instagram" fill="#000000" fill-rule="nonzero">
            <path d="M20.0044618,9.79396968 C14.3290574,9.79396968 9.75125488,14.3960365 9.75125488,20.1015228 C9.75125488,25.8070092 14.3290574,30.409076 20.0044618,30.409076 C25.6798661,30.409076 30.2576687,25.8070092 30.2576687,20.1015228 C30.2576687,14.3960365 25.6798661,9.79396968 20.0044618,9.79396968 Z M20.0044618,26.802778 C16.3368656,26.802778 13.3385388,23.7975297 13.3385388,20.1015228 C13.3385388,16.405516 16.327942,13.4002677 20.0044618,13.4002677 C23.6809816,13.4002677 26.6703848,16.405516 26.6703848,20.1015228 C26.6703848,23.7975297 23.672058,26.802778 20.0044618,26.802778 L20.0044618,26.802778 Z M33.0686001,9.37233783 C33.0686001,10.7090005 31.9977691,11.7765365 30.6770775,11.7765365 C29.3474624,11.7765365 28.2855549,10.7000296 28.2855549,9.37233783 C28.2855549,8.04464604 29.3563859,6.96813918 30.6770775,6.96813918 C31.9977691,6.96813918 33.0686001,8.04464604 33.0686001,9.37233783 Z M39.8594534,11.81242 C39.7077524,8.59187036 38.9760178,5.73912718 36.6291132,3.38875388 C34.2911322,1.03838057 31.45343,0.302767554 28.2498606,0.141291525 C24.9481316,-0.047097175 15.0518684,-0.047097175 11.7501394,0.141291525 C8.55549359,0.293796663 5.71779141,1.02940968 3.37088678,3.37978299 C1.02398215,5.73015629 0.301171221,8.58289947 0.14054657,11.8034491 C-0.0468488567,15.1226786 -0.0468488567,25.0713962 0.14054657,28.3906256 C0.29224763,31.6111753 1.02398215,34.4639185 3.37088678,36.8142918 C5.71779141,39.1646651 8.54656999,39.9002781 11.7501394,40.0617542 C15.0518684,40.2501429 24.9481316,40.2501429 28.2498606,40.0617542 C31.45343,39.909249 34.2911322,39.173636 36.6291132,36.8142918 C38.9670943,34.4639185 39.6988288,31.6111753 39.8594534,28.3906256 C40.0468489,25.0713962 40.0468489,15.1316495 39.8594534,11.81242 Z M35.5939766,31.9520692 C34.8979364,33.7103637 33.5504741,35.0649682 31.7925265,35.7736685 C29.1600669,36.8232627 22.9135527,36.5810487 20.0044618,36.5810487 C17.0953709,36.5810487 10.8399331,36.8142918 8.2163971,35.7736685 C6.46737312,35.0739391 5.11991076,33.7193346 4.41494702,31.9520692 C3.37088678,29.3056565 3.61182376,23.0260331 3.61182376,20.1015228 C3.61182376,17.1770125 3.37981037,10.8884183 4.41494702,8.25097652 C5.11098717,6.49268198 6.45844953,5.13807752 8.2163971,4.42937717 C10.8488567,3.37978299 17.0953709,3.62199703 20.0044618,3.62199703 C22.9135527,3.62199703 29.1689905,3.38875388 31.7925265,4.42937717 C33.5415505,5.12910663 34.8890128,6.48371109 35.5939766,8.25097652 C36.6380368,10.8973892 36.3970998,17.1770125 36.3970998,20.1015228 C36.3970998,23.0260331 36.6380368,29.3146274 35.5939766,31.9520692 Z" id="Shape"></path>
        </g>
    </g>
</svg>