<?xml version="1.0" encoding="UTF-8"?>
<svg width="18px" height="18px" viewBox="0 0 18 18" version="1.1" xmlns="http://www.w3.org/2000/svg" xmlns:xlink="http://www.w3.org/1999/xlink">
    <!-- Generator: Sketch 61.2 (89653) - https://sketch.com -->
    <title>icons/external-link</title>
    <desc>Created with Sketch.</desc>
    <g id="icons/external-link" stroke="none" stroke-width="1" fill="none" fill-rule="evenodd">
        <g id="external-link" fill="#000000" fill-rule="nonzero">
            <g id="Shape">
                <path d="M7.94117647,3 C8.42848654,3 8.82352941,3.39504287 8.82352941,3.88235294 C8.82352941,4.33485515 8.48290571,4.70780044 8.04407746,4.75876965 L7.94117647,4.76470588 L2.64705882,4.76470588 C2.19455661,4.76470588 1.82161133,5.10532958 1.77064212,5.54415783 L1.76470588,5.64705882 L1.76470588,15.3529412 C1.76470588,15.8054434 2.10532958,16.1783887 2.54415783,16.2293579 L2.64705882,16.2352941 L12.3529412,16.2352941 C12.8054434,16.2352941 13.1783887,15.8946704 13.2293579,15.4558422 L13.2352941,15.3529412 L13.2352941,10.0588235 C13.2352941,9.57151346 13.630337,9.17647059 14.1176471,9.17647059 C14.5701493,9.17647059 14.9430946,9.51709429 14.9940638,9.95592254 L15,10.0588235 L15,15.3529412 C15,16.7626596 13.8980118,17.9149949 12.508476,17.9955064 L12.3529412,18 L2.64705882,18 C1.2373404,18 0.0850051064,16.8980118 0.00449355301,15.508476 L0,15.3529412 L0,5.64705882 C0,4.2373404 1.1019882,3.08500511 2.49152401,3.00449355 L2.64705882,3 L7.94117647,3 Z M11.4308113,0.00621021353 L11.5384615,0 L17.0769231,0 L17.146374,0.00257341199 L17.146374,0.00257341199 L17.2622084,0.0186831425 L17.2622084,0.0186831425 L17.3650546,0.0459120792 L17.3650546,0.0459120792 L17.4675891,0.0864677185 L17.4675891,0.0864677185 L17.5575773,0.134765034 L17.5575773,0.134765034 L17.6464822,0.196548638 L17.6464822,0.196548638 L17.7296684,0.270379324 L17.7296684,0.270379324 C17.7623085,0.303034404 17.7920188,0.337545617 17.8187681,0.373563125 L17.8849189,0.476250372 L17.8849189,0.476250372 L17.9342534,0.580305208 L17.9342534,0.580305208 L17.9669122,0.677544955 L17.9669122,0.677544955 L17.9937898,0.815426653 L17.9937898,0.815426653 L18,0.923076923 L18,6.46153846 C18,6.97133977 17.5867244,7.38461538 17.0769231,7.38461538 C16.6035361,7.38461538 16.213378,7.02827059 16.1600564,6.56918873 L16.1538462,6.46153846 L16.1538462,3.15138462 L7.57579087,11.729637 C7.21530691,12.090121 6.63084693,12.090121 6.27036297,11.729637 C5.93760855,11.3968826 5.91201205,10.8732847 6.19357349,10.5111697 L6.27036297,10.4242091 L14.8467692,1.84615385 L11.5384615,1.84615385 C11.0650746,1.84615385 10.6749165,1.48980906 10.6215948,1.03072719 L10.6153846,0.923076923 C10.6153846,0.449689995 10.9717294,0.0595318517 11.4308113,0.00621021353 Z" transform="translate(9.000000, 9.000000) scale(-1, 1) translate(-9.000000, -9.000000) "></path>
            </g>
        </g>
    </g>
</svg>