<?xml version="1.0" encoding="UTF-8"?>
<svg width="20px" height="20px" viewBox="0 0 20 20" version="1.1" xmlns="http://www.w3.org/2000/svg" xmlns:xlink="http://www.w3.org/1999/xlink">
    <!-- Generator: Sketch 61.2 (89653) - https://sketch.com -->
    <title>icons/notification</title>
    <desc>Created with Sketch.</desc>
    <g id="icons/notification" stroke="none" stroke-width="1" fill="none" fill-rule="evenodd">
        <g id="ic-notifications-none-24px" transform="translate(3.000000, 2.000000)" fill="#000000" fill-rule="nonzero">
            <path d="M7,16.3333333 C7.91666667,16.3333333 8.66666667,15.5833333 8.66666667,14.6666667 L5.33333333,14.6666667 C5.33333333,15.5833333 6.08333333,16.3333333 7,16.3333333 Z M12,11.3333333 L12,7.16666667 C12,4.60833333 10.6416667,2.46666667 8.25,1.9 L8.25,1.33333333 C8.25,0.641666667 7.69166667,0.0833333333 7,0.0833333333 C6.30833333,0.0833333333 5.75,0.641666667 5.75,1.33333333 L5.75,1.9 C3.36666667,2.46666667 2,4.6 2,7.16666667 L2,11.3333333 L0.333333333,13 L0.333333333,13.8333333 L13.6666667,13.8333333 L13.6666667,13 L12,11.3333333 Z M10.3333333,12.1666667 L3.66666667,12.1666667 L3.66666667,7.16666667 C3.66666667,5.1 4.925,3.41666667 7,3.41666667 C9.075,3.41666667 10.3333333,5.1 10.3333333,7.16666667 L10.3333333,12.1666667 Z" id="Shape"></path>
        </g>
    </g>
</svg>