<?xml version="1.0" encoding="UTF-8"?>
<svg width="24px" height="24px" viewBox="0 0 24 24" version="1.1" xmlns="http://www.w3.org/2000/svg" xmlns:xlink="http://www.w3.org/1999/xlink">
    <!-- Generator: Sketch 61.2 (89653) - https://sketch.com -->
    <title>icons/overcast</title>
    <desc>Created with Sketch.</desc>
    <g id="icons/overcast" stroke="none" stroke-width="1" fill="none" fill-rule="evenodd">
        <g id="overcast" fill="#000000">
            <path d="M12,24 C5.3499,24 0,18.6501 0,12 C0,5.3499 5.3499,0 12,0 C18.6501,0 24,5.3499 24,12 C24,18.6501 18.6501,24 12,24 Z M12,19.2501 L12.9,18.3501 L12,14.9001 L11.1,18.3501 L12,19.2501 Z M10.8501,19.2 L10.4001,20.9001 L11.4501,19.8501 L10.8501,19.2 Z M13.1499,19.2 L12.5499,19.8 L13.5999,20.85 L13.1499,19.2 Z M14.0001,22.2999 L12,20.3001 L9.9999,22.2999 C10.65,22.4001 11.3001,22.5 12,22.5 C12.6999,22.5 13.35,22.4499 14.0001,22.2999 Z M12,1.5 C6.2001,1.5 1.5,6.2001 1.5,12 C1.5,16.5999 4.4499,20.4999 8.55,21.9 L10.8,13.5501 C10.2999,13.2 9.9999,12.6 9.9999,11.9499 C9.9999,10.8501 10.8999,9.9501 12,9.9501 C13.1001,9.9501 14.0001,10.8501 14.0001,11.9499 C14.0001,12.6 13.7001,13.1499 13.2,13.5501 L15.45,21.9 C19.5501,20.4999 22.5,16.5999 22.5,12 C22.5,6.2001 17.7999,1.5 12,1.5 Z M18.8499,17.1999 C18.6,17.4999 18.15,17.6001 17.7999,17.3499 C17.4501,17.1 17.4,16.65 17.6499,16.35 C17.6499,16.35 18.9999,14.55 18.9999,12 C18.9999,9.45 17.6499,7.65 17.6499,7.65 C17.4,7.35 17.4501,6.9 17.7999,6.6501 C18.15,6.3999 18.6,6.5001 18.8499,6.8001 C18.9501,6.9 20.4999,8.9499 20.4999,12 C20.4999,15.0501 18.9501,17.1 18.8499,17.1999 Z M15.2001,15.2499 C14.9001,14.9499 14.9499,14.4 15.2499,14.1 C15.2499,14.1 15.9999,13.2999 15.9999,12 C15.9999,10.7001 15.2499,9.9501 15.2499,9.9 C14.9499,9.6 14.9499,9.0999 15.2001,8.7501 C15.5001,8.4 15.9501,8.4 16.2501,8.7 C16.2999,8.7501 17.4999,9.9999 17.4999,12 C17.4999,14.0001 16.2999,15.2499 16.2501,15.3 C15.9501,15.6 15.5001,15.5499 15.2001,15.2499 Z M8.7999,15.2499 C8.4999,15.5499 8.0499,15.6 7.7499,15.3 C7.7001,15.2001 6.5001,14.0001 6.5001,12 C6.5001,9.9999 7.7001,8.7999 7.7499,8.7 C8.0499,8.4 8.55,8.4 8.7999,8.7501 C9.0999,9.0501 9.0501,9.6 8.7501,9.9 C8.7501,9.9501 8.0001,10.7001 8.0001,12 C8.0001,13.2999 8.7501,14.1 8.7501,14.1 C9.0501,14.4 9.0999,14.9001 8.7999,15.2499 Z M6.2001,17.3499 C5.85,17.6001 5.4,17.4999 5.1501,17.1999 C5.0499,17.1 3.5001,15.0501 3.5001,12 C3.5001,8.9499 5.0499,6.9 5.1501,6.8001 C5.4,6.5001 5.85,6.3999 6.2001,6.6501 C6.5499,6.9 6.6,7.35 6.3501,7.65 C6.3501,7.65 5.0001,9.45 5.0001,12 C5.0001,14.55 6.3501,16.35 6.3501,16.35 C6.6,16.65 6.5001,17.1 6.2001,17.3499 Z" id="overcastCanvas-bezier"></path>
        </g>
    </g>
</svg>