<?xml version="1.0" encoding="UTF-8"?>
<svg width="40px" height="46px" viewBox="0 0 40 46" version="1.1" xmlns="http://www.w3.org/2000/svg" xmlns:xlink="http://www.w3.org/1999/xlink">
    <!-- Generator: Sketch 61.2 (89653) - https://sketch.com -->
    <title>icons/podcast</title>
    <desc>Created with Sketch.</desc>
    <g id="icons/podcast" stroke="none" stroke-width="1" fill="none" fill-rule="evenodd">
        <g id="podcast" fill="#000000" fill-rule="nonzero">
            <path d="M23.8775893,43.6216964 C23.4183929,45.3190179 21.68375,45.7142857 20,45.7142857 C18.3163393,45.7142857 16.5816071,45.3190179 16.1225,43.6216964 C15.4399107,41.0833929 14.2857143,34.7230357 14.2857143,31.7633929 C14.2857143,28.6244643 17.06625,27.8571429 20,27.8571429 C22.93375,27.8571429 25.7142857,28.6244643 25.7142857,31.7633929 C25.7142857,34.7052679 24.5650893,41.0650893 23.8775893,43.6216964 Z M14.0059821,25.76375 C12.3369643,24.1291071 11.3311607,21.8197321 11.4359821,19.2816964 C11.619375,14.8420536 15.22125,11.2499107 19.6613393,11.0780357 C24.54125,10.8891071 28.5714286,14.8041964 28.5714286,19.6428571 C28.5714286,22.038125 27.5835714,24.2067857 25.9941071,25.7635714 C25.7552679,25.9975 25.7797321,26.3873214 26.0501786,26.5838393 C26.8816071,27.1878571 27.5198214,27.95375 27.9460714,28.8483929 C28.1015179,29.1746429 28.5261607,29.2644643 28.7897321,29.0172321 C31.3634821,26.6026786 32.94625,23.14375 32.8532143,19.3239286 C32.6875893,12.5198214 27.1750893,6.98392857 20.3716964,6.79098214 C13.1133036,6.58508929 7.14285714,12.4299107 7.14285714,19.6428571 C7.14285714,23.3358036 8.70821429,26.6696429 11.2098214,29.016875 C11.4734821,29.2642857 11.8983036,29.1749107 12.0538393,28.8483929 C12.4800893,27.9536607 13.1183929,27.1878571 13.9498214,26.5838393 C14.2202679,26.3874107 14.2448214,25.9975893 14.0059821,25.76375 L14.0059821,25.76375 Z M20,0 C8.94678571,0 0,8.94508929 0,20 C0,28.035 4.69660714,34.7899107 11.2266964,37.9828571 C11.6135714,38.1719643 12.0541071,37.845 11.98875,37.4194643 C11.7760714,36.0344643 11.6010714,34.6564286 11.5060714,33.460625 C11.4930357,33.2966964 11.4034821,33.149375 11.2669643,33.0577679 C7.03482143,30.2179464 4.25232143,25.3777679 4.28598214,19.9017857 C4.33883929,11.3091964 11.3654464,4.30821429 19.9582143,4.28580357 C28.6422321,4.263125 35.7142857,11.3211607 35.7142857,20 C35.7142857,25.5296429 32.8430357,30.4008929 28.5133929,33.2024107 C28.4241964,34.4557143 28.239375,35.9334821 28.01125,37.419375 C27.9458929,37.845 28.3865179,38.1719643 28.7733036,37.9827679 C35.288125,34.7970536 40,28.0524107 40,20 C40,8.946875 31.0549107,0 20,0 Z M20,14.2857143 C16.8441071,14.2857143 14.2857143,16.8441071 14.2857143,20 C14.2857143,23.1558929 16.8441071,25.7142857 20,25.7142857 C23.1558929,25.7142857 25.7142857,23.1558929 25.7142857,20 C25.7142857,16.8441071 23.1558929,14.2857143 20,14.2857143 Z" id="Shape"></path>
        </g>
    </g>
</svg>