<?xml version="1.0" encoding="UTF-8"?>
<svg width="40px" height="40px" viewBox="0 0 40 40" version="1.1" xmlns="http://www.w3.org/2000/svg" xmlns:xlink="http://www.w3.org/1999/xlink">
    <!-- Generator: Sketch 61.2 (89653) - https://sketch.com -->
    <title>icons/spotify</title>
    <desc>Created with Sketch.</desc>
    <g id="icons/spotify" stroke="none" stroke-width="1" fill="none" fill-rule="evenodd">
        <g id="spotify" fill="#000000" fill-rule="nonzero">
            <path d="M20,0 C8.95967742,0 0,8.95967742 0,20 C0,31.0403226 8.95967742,40 20,40 C31.0403226,40 40,31.0403226 40,20 C40,8.95967742 31.0403226,0 20,0 Z M28.1209677,29.4274194 C27.7822581,29.4274194 27.5725806,29.3225806 27.2580645,29.1370968 C22.2258065,26.1048387 16.3709677,25.9758065 10.5887097,27.1612903 C10.2741935,27.2419355 9.86290323,27.3709677 9.62903226,27.3709677 C8.84677419,27.3709677 8.35483871,26.75 8.35483871,26.0967742 C8.35483871,25.266129 8.84677419,24.8709677 9.4516129,24.7419355 C16.0564516,23.2822581 22.8064516,23.4112903 28.5645161,26.8548387 C29.0564516,27.1693548 29.3467742,27.4516129 29.3467742,28.1854839 C29.3467742,28.9193548 28.7741935,29.4274194 28.1209677,29.4274194 L28.1209677,29.4274194 Z M30.2903226,24.1370968 C29.8709677,24.1370968 29.5887097,23.9516129 29.2983871,23.7983871 C24.2580645,20.8145161 16.7419355,19.6129032 10.0564516,21.4274194 C9.66935484,21.5322581 9.45967742,21.6370968 9.09677419,21.6370968 C8.23387097,21.6370968 7.53225806,20.9354839 7.53225806,20.0725806 C7.53225806,19.2096774 7.9516129,18.6370968 8.78225806,18.4032258 C11.0241935,17.7741935 13.3145161,17.3064516 16.6693548,17.3064516 C21.9032258,17.3064516 26.9596774,18.6048387 30.9435484,20.9758065 C31.5967742,21.3629032 31.8548387,21.8629032 31.8548387,22.5645161 C31.8467742,23.4354839 31.1693548,24.1370968 30.2903226,24.1370968 L30.2903226,24.1370968 Z M32.7903226,17.9919355 C32.3709677,17.9919355 32.1129032,17.8870968 31.75,17.6774194 C26.0080645,14.25 15.7419355,13.4274194 9.09677419,15.2822581 C8.80645161,15.3629032 8.44354839,15.4919355 8.05645161,15.4919355 C6.99193548,15.4919355 6.17741935,14.6612903 6.17741935,13.5887097 C6.17741935,12.4919355 6.85483871,11.8709677 7.58064516,11.6612903 C10.4193548,10.8306452 13.5967742,10.4354839 17.0564516,10.4354839 C22.9435484,10.4354839 29.1129032,11.6612903 33.6209677,14.2903226 C34.25,14.6532258 34.6612903,15.1532258 34.6612903,16.1129032 C34.6612903,17.2096774 33.7741935,17.9919355 32.7903226,17.9919355 L32.7903226,17.9919355 Z" id="Shape"></path>
        </g>
    </g>
</svg>