<?xml version="1.0" encoding="UTF-8"?>
<svg width="24px" height="24px" viewBox="0 0 24 24" version="1.1" xmlns="http://www.w3.org/2000/svg" xmlns:xlink="http://www.w3.org/1999/xlink">
    <!-- Generator: Sketch 61.2 (89653) - https://sketch.com -->
    <title>icons/time</title>
    <desc>Created with Sketch.</desc>
    <g id="icons/time" stroke="none" stroke-width="1" fill="none" fill-rule="evenodd">
        <g id="time_icon" transform="translate(2.000000, 2.000000)" fill="#000000" fill-rule="nonzero">
            <path d="M9.99,0 C15.52,0 20,4.48 20,10 C20,15.52 15.52,20 9.99,20 C4.47,20 0,15.52 0,10 C0,4.48 4.47,0 9.99,0 Z M10,2 C5.58,2 2,5.58 2,10 C2,14.42 5.58,18 10,18 C14.42,18 18,14.42 18,10 C18,5.58 14.42,2 10,2 Z M10.5,5 L10.5,10.25 L15,12.92 L14.25,14.15 L9,11 L9,5 L10.5,5 Z" id="Shape"></path>
        </g>
    </g>
</svg>