<?xml version="1.0" encoding="UTF-8"?>
<svg width="40px" height="33px" viewBox="0 0 40 33" version="1.1" xmlns="http://www.w3.org/2000/svg" xmlns:xlink="http://www.w3.org/1999/xlink">
    <!-- Generator: Sketch 61.2 (89653) - https://sketch.com -->
    <title>icons/twitter</title>
    <desc>Created with Sketch.</desc>
    <g id="icons/twitter" stroke="none" stroke-width="1" fill="none" fill-rule="evenodd">
        <g id="twitter" fill="#000000" fill-rule="nonzero">
            <path d="M35.8882813,8.1028125 C35.9136719,8.458125 35.9136719,8.81351562 35.9136719,9.16882812 C35.9136719,20.0063281 27.665,32.4936719 12.5888281,32.4936719 C7.94414063,32.4936719 3.62945313,31.1484375 0,28.8135156 C0.659921875,28.8896094 1.294375,28.915 1.9796875,28.915 C5.81210938,28.915 9.34007813,27.620625 12.1573438,25.4125 C8.55328125,25.3363281 5.53296875,22.9759375 4.49234375,19.7271875 C5,19.8032812 5.50757813,19.8540625 6.040625,19.8540625 C6.77664063,19.8540625 7.51273438,19.7525 8.19796875,19.5749219 C4.44164063,18.8134375 1.62429688,15.5139844 1.62429688,11.5292187 L1.62429688,11.4277344 C2.715625,12.036875 3.98476563,12.4175781 5.32984375,12.4682812 C3.12171875,10.9961719 1.67507813,8.48351562 1.67507813,5.64085937 C1.67507813,4.11804687 2.08109375,2.72210937 2.79179688,1.50382812 C6.82734375,6.4784375 12.8933594,9.72710937 19.6953125,10.0825 C19.5684375,9.47335937 19.4922656,8.83890625 19.4922656,8.204375 C19.4922656,3.6865625 23.1471094,0.00640625 27.6902344,0.00640625 C30.050625,0.00640625 32.1825781,0.99625 33.6800781,2.59523437 C35.5328125,2.23992187 37.3094531,1.55460937 38.883125,0.615546875 C38.2739063,2.51914062 36.9795313,4.118125 35.2790625,5.13328125 C36.9288281,4.95570312 38.5278125,4.49875 39.9998438,3.86429687 C38.8832813,5.48859375 37.4872656,6.93523437 35.8882813,8.1028125 Z" id="Shape"></path>
        </g>
    </g>
</svg>