<?xml version="1.0" encoding="UTF-8"?>
<svg width="28px" height="42px" viewBox="0 0 28 42" version="1.1" xmlns="http://www.w3.org/2000/svg" xmlns:xlink="http://www.w3.org/1999/xlink">
    <!-- Generator: Sketch 61.2 (89653) - https://sketch.com -->
    <title>icons/virgool</title>
    <desc>Created with Sketch.</desc>
    <g id="icons/virgool" stroke="none" stroke-width="1" fill="none" fill-rule="evenodd">
        <g id="virgool" transform="translate(0.000000, -1.000000)">
            <path d="M12.3506147,6.64214654 L8.99019633,12.2451154 C8.08944318,13.7524603 7.18385802,15.2417719 6.38116696,16.7904894 C5.57364388,18.3211736 5.53836401,19.9928412 5.97147704,21.6453077 C6.95013425,25.4419729 11.4372701,28.6271213 16.2937981,26.4463911 C19.1683005,25.1639766 20.7132019,22.7785579 20.693121,19.5658142 C20.6773983,16.4775353 19.1234089,14.2846355 16.4146849,12.9036758 C15.7317875,12.5551356 14.9432796,12.3895182 14.178111,12.1306707 L17.1884143,7.03214217 L17.1884143,7.03214217 C22.2028393,8.42983029 25.8622483,12.7712553 26.6930693,17.4026403 C27.2343234,20.4125413 26.9438944,23.369637 25.320132,25.9966997 C23.6831683,28.650165 21.8613861,31.1980198 20.0660066,33.7458746 C18.0066007,36.650165 15.8811881,39.5148515 13.7953795,42.3927393 L13.4437657,42.8534505 C13.4173597,42.8872277 13.3894389,42.9227723 13.359736,42.960396 L6.95709571,38.5775578 L6.95709571,38.5775578 L8.51569637,36.401769 C9.28844884,35.3273927 10.0488449,34.2739274 10.7854785,33.2442244 C9.45214521,32.689769 8.07920792,32.2937294 6.90429043,31.5676568 C2.27062706,28.7293729 -0.224422442,24.6237624 0.171617162,19.1056106 C0.580858086,13.3762376 3.64356436,9.34983498 8.95049505,7.43564356 C10.110959,7.01801348 11.2478999,6.75994023 12.3506147,6.64214654 Z" id="Path" fill="#000000" fill-rule="nonzero"></path>
            <g id="Fill-1" transform="translate(14.817933, 15.487812) rotate(-150.000000) translate(-14.817933, -15.487812) translate(6.317933, 3.487812)">
                <g id="Group" transform="translate(0.000000, 0.132013)"></g>
                <g id="Group" transform="translate(0.132013, 0.000000)"></g>
            </g>
        </g>
    </g>
</svg>